<svg width="800" height="800" viewBox="0 0 800 800" fill="none" xmlns="http://www.w3.org/2000/svg">
<path d="M311.667 562.667C311.667 565 309.334 566.667 306.001 566.667C302.667 566.667 300.001 566.667 300.001 562.667C300.001 558.667 302.667 558.667 305.667 558.667C308.667 558.667 311.667 560.333 311.667 562.667ZM278.334 557.667C278.334 560 278.334 562.667 283.001 563.333C284.194 563.907 285.567 563.983 286.816 563.547C288.066 563.11 289.091 562.193 289.667 561C289.667 558.667 289.667 556.333 285.001 555.333C280.334 554.333 279.001 555.333 278.334 557.667ZM325.667 556C322.667 556 320.667 558.667 321.001 561.333C321.334 564 324.001 565 327.334 564.333C330.667 563.667 332.334 561.333 332.001 559C331.667 556.667 329.001 555.667 325.667 556ZM396.666 133.334C361.513 133.003 326.654 139.778 294.182 153.251C261.71 166.725 232.295 186.62 207.702 211.742C183.109 236.865 163.845 266.697 151.065 299.448C138.286 332.199 132.255 367.193 133.334 402.333C132.403 459.897 149.475 516.313 182.164 563.703C214.853 611.093 261.527 647.09 315.667 666.667C329.334 669 334.333 660.333 334.333 653.333C334.333 646.333 334.333 608.667 334.333 586.667C334.333 586.667 259.001 603.333 243.001 553.333C243.001 553.333 231.001 520 213.334 513C213.334 513 188.667 495.667 215.001 496C223.625 497.163 231.857 500.333 239.036 505.253C246.214 510.173 252.139 516.71 256.334 524.333C259.822 531.17 264.67 537.223 270.58 542.117C276.491 547.013 283.339 550.65 290.706 552.803C298.072 554.957 305.801 555.583 313.418 554.643C321.035 553.703 328.379 551.213 335 547.333C336.263 533.417 342.263 520.357 352 510.333C292.001 503.333 231.334 494.667 231.334 388.333C230.697 376.32 232.627 364.31 236.995 353.103C241.363 341.897 248.069 331.747 256.667 323.334C248.555 298.933 249.502 272.427 259.334 248.667C282.001 241.334 333.666 278.334 333.666 278.334C377.806 265.885 424.53 265.885 468.666 278.334C468.666 278.334 520.333 241.334 543 248.667C553.046 272.381 553.993 298.965 545.666 323.334C554.57 331.631 561.63 341.703 566.396 352.9C571.16 364.097 573.523 376.167 573.333 388.333C573.333 495 510 503.333 450 510.333C456.03 517.097 460.62 525.02 463.486 533.617C466.35 542.213 467.433 551.303 466.666 560.333C466.666 597.667 466.666 643.667 466.666 652.667C466.646 654.917 467.166 657.14 468.186 659.147C469.21 661.153 470.696 662.887 472.53 664.193C474.36 665.503 476.483 666.35 478.71 666.663C480.94 666.98 483.213 666.75 485.333 666C539.376 646.593 585.953 610.7 618.49 563.39C651.03 516.08 667.88 459.74 666.666 402.333C666.98 366.837 660.203 331.634 646.733 298.79C633.263 265.947 613.37 236.123 588.223 211.068C563.076 186.014 533.176 166.232 500.283 152.884C467.39 139.535 432.163 132.889 396.666 133.334ZM238.001 513.667C238.001 513.667 238.001 517.333 238.001 519.333C238.372 519.707 238.814 520.003 239.3 520.203C239.786 520.407 240.307 520.51 240.834 520.51C241.36 520.51 241.882 520.407 242.368 520.203C242.854 520.003 243.296 519.707 243.667 519.333C243.667 519.333 243.667 515.667 243.667 513.333C243.667 511 239.334 512.333 238.001 513.667ZM226.334 504.667C226.334 504.667 226.334 508 228.667 509C228.948 509.35 229.304 509.63 229.708 509.823C230.111 510.013 230.553 510.117 231.001 510.117C231.448 510.117 231.89 510.013 232.293 509.823C232.697 509.63 233.053 509.35 233.334 509C233.334 509 233.334 505.667 231.001 504.667C228.667 503.667 227.001 503.667 226.334 504.667ZM259.667 544C259.667 544 259.667 548.667 259.667 551C259.667 553.333 265.334 553.667 266.667 551C268.001 548.333 266.667 546.333 266.667 544C266.667 541.667 262.334 542.333 261.001 544H259.667ZM247.334 527.667C247.334 527.667 247.334 531.667 247.334 534.333C247.334 537 252.001 538 253.667 537C254.511 536.03 254.976 534.787 254.976 533.5C254.976 532.213 254.511 530.97 253.667 530C252.001 527.333 249.334 526.333 247.334 527.667Z" fill="white"/>
</svg>
