<svg width="800" height="800" viewBox="0 0 800 800" fill="none" xmlns="http://www.w3.org/2000/svg">
<path d="M306.091 573.187C306.091 575.672 303.606 577.446 300.055 577.446C296.504 577.446 293.664 577.446 293.664 573.187C293.664 568.928 296.504 568.928 299.7 568.928C302.895 568.928 306.091 570.703 306.091 573.187ZM270.585 567.864C270.585 570.348 270.585 573.187 275.555 573.897C276.827 574.508 278.289 574.589 279.62 574.124C280.951 573.659 282.043 572.683 282.657 571.413C282.657 568.928 282.657 566.444 277.686 565.379C272.715 564.314 271.295 565.379 270.585 567.864ZM321.004 566.089C317.808 566.089 315.678 568.928 316.033 571.768C316.388 574.607 319.229 575.672 322.779 574.962C326.33 574.252 328.105 571.768 327.75 569.283C327.395 566.799 324.555 565.734 321.004 566.089ZM396.632 116.056C359.187 115.703 322.054 122.916 287.466 137.263C252.877 151.609 221.544 172.792 195.348 199.541C169.151 226.29 148.631 258.053 135.018 292.925C121.406 327.797 114.981 365.057 116.131 402.472C115.14 463.763 133.324 523.833 168.145 574.291C202.965 624.75 252.682 663.077 310.352 683.921C324.91 686.406 330.234 677.178 330.234 669.725C330.234 662.271 330.234 622.166 330.234 598.741C330.234 598.741 249.991 616.487 232.948 563.25C232.948 563.25 220.165 527.758 201.347 520.305C201.347 520.305 175.072 501.849 203.122 502.204C212.309 503.443 221.078 506.818 228.724 512.057C236.37 517.295 242.681 524.255 247.15 532.372C250.865 539.651 256.029 546.097 262.325 551.307C268.621 556.52 275.916 560.393 283.763 562.685C291.61 564.978 299.842 565.645 307.956 564.644C316.069 563.644 323.893 560.992 330.945 556.861C332.29 542.043 338.682 528.138 349.053 517.465C285.142 510.012 220.52 500.784 220.52 387.566C219.841 374.775 221.897 361.987 226.55 350.055C231.203 338.123 238.347 327.316 247.505 318.358C238.864 292.377 239.873 264.155 250.346 238.857C274.49 231.049 329.524 270.444 329.524 270.444C376.542 257.189 426.312 257.189 473.326 270.444C473.326 270.444 528.361 231.049 552.506 238.857C563.207 264.105 564.216 292.411 555.346 318.358C564.83 327.192 572.35 337.917 577.428 349.838C582.501 361.76 585.019 374.612 584.816 387.566C584.816 501.139 517.354 510.012 453.442 517.465C459.865 524.667 464.755 533.103 467.808 542.256C470.858 551.41 472.012 561.088 471.195 570.703C471.195 610.454 471.195 659.432 471.195 669.015C471.174 671.411 471.728 673.778 472.815 675.914C473.905 678.051 475.488 679.897 477.441 681.288C479.39 682.683 481.652 683.584 484.024 683.918C486.399 684.255 488.821 684.01 491.079 683.211C548.646 662.548 598.259 624.331 632.917 573.957C667.579 523.584 685.527 463.596 684.235 402.472C684.569 364.677 677.35 327.195 663.002 292.225C648.654 257.255 627.463 225.5 600.677 198.823C573.891 172.146 542.042 151.084 507.004 136.871C471.966 122.658 434.443 115.582 396.632 116.056ZM227.622 521.015C227.622 521.015 227.622 524.919 227.622 527.048C228.018 527.446 228.488 527.762 229.006 527.975C229.524 528.191 230.079 528.301 230.64 528.301C231.2 528.301 231.756 528.191 232.274 527.975C232.791 527.762 233.262 527.446 233.658 527.048C233.658 527.048 233.658 523.144 233.658 520.66C233.658 518.175 229.042 519.595 227.622 521.015ZM215.194 511.432C215.194 511.432 215.194 514.981 217.68 516.046C217.979 516.418 218.358 516.717 218.788 516.922C219.218 517.125 219.689 517.235 220.165 517.235C220.642 517.235 221.112 517.125 221.542 516.922C221.973 516.717 222.351 516.418 222.651 516.046C222.651 516.046 222.651 512.497 220.165 511.432C217.68 510.367 215.904 510.367 215.194 511.432ZM250.701 553.312C250.701 553.312 250.701 558.281 250.701 560.765C250.701 563.25 256.737 563.605 258.157 560.765C259.578 557.926 258.157 555.796 258.157 553.312C258.157 550.828 253.541 551.537 252.121 553.312H250.701ZM237.563 535.921C237.563 535.921 237.563 540.18 237.563 543.019C237.563 545.859 242.534 546.924 244.31 545.859C245.209 544.826 245.704 543.502 245.704 542.132C245.704 540.762 245.209 539.438 244.31 538.406C242.534 535.566 239.694 534.501 237.563 535.921Z" fill="white"/>
</svg>
