<svg width="800" height="800" viewBox="0 0 800 800" fill="none" xmlns="http://www.w3.org/2000/svg">
<g clip-path="url(#clip0_31_36)">
<path d="M104.333 44.6C69.3333 65.3334 0.666667 144.267 0 165V199.333C0 242.767 40.6667 281 77.5 281C121.833 281 158.7 244.267 158.7 200.667C158.7 244.267 194.367 281 238.7 281C282.967 281 317.433 244.267 317.433 200.667C317.433 244.267 355.333 281 399.633 281H400.433C444.767 281 482.633 244.267 482.633 200.667C482.633 244.267 517.1 281 561.4 281C605.733 281 641.4 244.267 641.4 200.667C641.4 244.267 678.267 281 722.567 281C759.333 281 800 242.733 800 199.333V165C799.333 144.333 730.6 65.3334 695.667 44.6C587.233 40.8 512.067 40.1334 400 40.1667C287.933 40.1667 135.167 41.9334 104.333 44.6ZM316.867 260.5C312.627 267.883 307.377 274.638 301.267 280.567C284.6 296.9 261.6 307.067 236.367 307.067C212.067 307.077 188.732 297.564 171.367 280.567C165.505 274.748 160.5 268.126 156.5 260.9C152.042 268.178 146.59 274.798 140.3 280.567C122.931 297.558 99.5978 307.07 75.3 307.067C72.2916 306.974 69.3189 306.388 66.5 305.333C63.4338 338.032 61.5659 370.832 60.9 403.667V403.833L60.7 442.733C61.3667 520.533 53.0333 694.867 95.0333 737.733C160.1 752.867 279.867 759.8 400.033 759.833C520.2 759.833 639.967 752.833 705.033 737.7C747.033 694.9 738.7 520.567 739.367 442.767L739.167 403.867V403.733C738.519 370.897 736.651 338.097 733.567 305.4C730.754 306.436 727.795 307.021 724.8 307.133C700.502 307.137 677.169 297.624 659.8 280.633C653.492 274.882 648.037 268.26 643.6 260.967C639.367 268.3 634.767 274.7 628.7 280.633C611.329 297.618 587.994 307.12 563.7 307.1C538.367 307.1 515.5 297 498.767 280.667C492.657 274.738 487.406 267.983 483.167 260.6C478.979 267.973 473.785 274.727 467.733 280.667C450.361 297.648 427.027 307.149 402.733 307.133H397.4C373.111 307.158 349.778 297.67 332.4 280.7C326.337 274.763 321.131 268.009 316.933 260.633L316.867 260.5ZM250.067 346.9C276.567 346.967 300.067 346.9 329.167 378.667C352.699 376.238 376.343 375.048 400 375.1C424 375.1 447.933 376.267 470.833 378.667C499.933 346.9 523.433 347 549.9 346.9C562.433 346.9 612.433 346.9 647.233 444.7L684.667 578.967C712.4 678.8 675.8 681.233 630.133 681.3C562.467 678.8 524.933 629.633 524.933 580.467C487.467 586.6 443.733 589.667 400 589.7C356.267 589.7 312.533 586.6 275.067 580.467C275.067 629.633 237.567 678.8 169.867 681.333C124.2 681.2 87.6 678.767 115.333 578.933L152.733 444.7C187.567 346.9 237.567 346.9 250.067 346.9ZM400 423.8C399.933 423.867 328.667 489.267 315.9 512.533L362.567 510.667V551.333C362.567 553.2 381.233 552.433 400 551.567C418.733 552.433 437.467 553.233 437.467 551.3V510.633L484.133 512.467C471.267 489.233 400 423.8 400 423.8Z" fill="white"/>
</g>
<defs>
<clipPath id="clip0_31_36">
<rect width="800" height="800" fill="white"/>
</clipPath>
</defs>
</svg>
