<svg width="800" height="800" viewBox="0 0 800 800" fill="none" xmlns="http://www.w3.org/2000/svg">
<path d="M187.859 145C162.747 159.877 113.478 216.511 113 231.387V256.022C113 287.185 142.178 314.617 168.606 314.617C200.415 314.617 226.867 288.261 226.867 256.978C226.867 288.261 252.458 314.617 284.267 314.617C316.029 314.617 340.758 288.261 340.758 256.978C340.758 288.261 367.952 314.617 399.737 314.617H400.311C432.12 314.617 459.289 288.261 459.289 256.978C459.289 288.261 484.019 314.617 515.804 314.617C547.614 314.617 573.205 288.261 573.205 256.978C573.205 288.261 599.656 314.617 631.442 314.617C657.822 314.617 687 287.161 687 256.022V231.387C686.522 216.559 637.206 159.877 612.141 145C534.34 142.274 480.408 141.796 400 141.819C319.592 141.819 209.982 143.087 187.859 145ZM340.352 299.909C337.31 305.206 333.543 310.052 329.159 314.306C317.2 326.026 300.698 333.32 282.593 333.32C265.158 333.328 248.415 326.502 235.956 314.306C231.75 310.131 228.159 305.38 225.289 300.196C222.09 305.418 218.178 310.167 213.665 314.306C201.203 326.497 184.461 333.323 167.028 333.32C164.869 333.254 162.736 332.833 160.714 332.077C158.514 355.538 157.174 379.071 156.696 402.631V402.75L156.552 430.661C157.031 486.482 151.051 611.567 181.186 642.323C227.872 653.182 313.804 658.156 400.024 658.18C486.244 658.18 572.176 653.158 618.861 642.3C648.996 611.591 643.017 486.506 643.496 430.685L643.352 402.774V402.679C642.888 379.119 641.547 355.584 639.334 332.124C637.316 332.867 635.193 333.287 633.044 333.368C615.61 333.371 598.869 326.545 586.407 314.354C581.88 310.228 577.966 305.476 574.783 300.243C571.746 305.505 568.445 310.097 564.092 314.354C551.629 326.541 534.886 333.358 517.455 333.344C499.278 333.344 482.871 326.097 470.865 314.378C466.481 310.124 462.714 305.278 459.672 299.98C456.668 305.271 452.941 310.117 448.599 314.378C436.134 326.563 419.392 333.38 401.961 333.368H398.134C380.707 333.386 363.966 326.578 351.497 314.402C347.146 310.142 343.411 305.296 340.4 300.004L340.352 299.909ZM292.423 361.901C311.437 361.948 328.298 361.901 349.177 384.693C366.062 382.951 383.026 382.096 400 382.134C417.22 382.134 434.392 382.971 450.823 384.693C471.702 361.901 488.563 361.972 507.553 361.901C516.546 361.901 552.421 361.901 577.39 432.072L604.248 528.408C624.147 600.039 597.886 601.785 565.121 601.833C516.57 600.039 489.64 564.762 489.64 529.485C462.757 533.885 431.379 536.086 400 536.11C368.621 536.11 337.243 533.885 310.36 529.485C310.36 564.762 283.454 600.039 234.879 601.857C202.114 601.761 175.853 600.015 195.752 528.385L222.586 432.072C247.579 361.901 283.454 361.901 292.423 361.901ZM400 417.076C399.952 417.124 348.818 464.049 339.658 480.743L373.142 479.403V508.582C373.142 509.921 386.535 509.371 400 508.749C413.441 509.371 426.882 509.945 426.882 508.558V479.379L460.366 480.695C451.134 464.025 400 417.076 400 417.076Z" fill="white"/>
</svg>
